Coordinates
version=1
nRows=10
nColumns=40
inDegrees=yes

Units are S.I. units (second, meters, Newtons, ...)
If the header above contains a line with 'inDegrees', this indicates whether rotational values are in degrees (yes) or radians (no).

endheader
time	pelvis_tilt	pelvis_list	pelvis_rotation	pelvis_tx	pelvis_ty	pelvis_tz	hip_flexion_r	hip_adduction_r	hip_rotation_r	knee_angle_r	knee_angle_r_beta	ankle_angle_r	subtalar_angle_r	mtp_angle_r	hip_flexion_l	hip_adduction_l	hip_rotation_l	knee_angle_l	knee_angle_l_beta	ankle_angle_l	subtalar_angle_l	mtp_angle_l	lumbar_extension	lumbar_bending	lumbar_rotation	arm_flex_r	arm_add_r	arm_rot_r	elbow_flex_r	pro_sup_r	wrist_flex_r	wrist_dev_r	arm_flex_l	arm_add_l	arm_rot_l	elbow_flex_l	pro_sup_l	wrist_flex_l	wrist_dev_l
      0.00000000	     -9.41463037	      6.87306769	      2.36422717	     -0.28704710	      1.02528134	      0.57417380	     -9.78942629	     -2.67420806	      1.27875486	     31.70700730	      0.55339167	    -16.04155031	      0.00000000	      0.00000000	     34.16594203	      8.19941401	     -1.69180497	     21.78942197	      0.38029716	      2.52386287	      0.00000000	      0.00000000	     -0.94788691	     -7.66554457	      9.10422311	      3.44293383	    -15.79223804	     22.14570412	    102.05999062	     63.29034988	      0.00000000	      0.00000000	    -35.57457800	    -20.58327139	      9.78346601	     87.95254989	     58.97362189	      0.00000000	      0.00000000
      0.00500000	     -9.19907155	      6.49160445	      2.62324062	     -0.27184813	      1.02573102	      0.57357443	     -9.67688323	     -2.07893918	      1.68868762	     33.53039047	      0.58521571	    -15.47497268	      0.00000000	      0.00000000	     33.31614490	      8.08560427	     -1.39049966	     19.70593643	      0.34393347	      2.32856416	      0.00000000	      0.00000000	     -1.19305814	     -7.29356026	      8.96125374	      3.13851339	    -16.08151882	     22.22852826	    102.11468617	     63.32547407	      0.00000000	      0.00000000	    -35.50397612	    -20.46931244	      9.74267426	     88.12988281	     59.00062620	      0.00000000	      0.00000000
      0.01000000	     -9.12781489	      6.11220119	      2.97699075	     -0.25647045	      1.02565223	      0.57263596	     -9.40865259	     -1.53754312	      1.88973606	     35.22344991	      0.61476517	    -14.67114840	      0.00000000	      0.00000000	     32.56988518	      8.03761937	     -1.00764940	     17.75026769	      0.30980061	      2.25771626	      0.00000000	      0.00000000	     -1.25125579	     -6.92423696	      8.72226595	      2.84158726	    -16.27178704	     22.45759341	    102.01523349	     63.36196707	      0.00000000	      0.00000000	    -35.34039974	    -20.23612034	      9.55664074	     88.20672688	     58.98462057	      0.00000000	      0.00000000
      0.01500000	     -9.02391272	      6.01242859	      3.13548166	     -0.24147316	      1.02554960	      0.57209239	     -8.94031912	     -1.31564382	      2.14180687	     37.40996990	      0.65292715	    -14.07364387	      0.00000000	      0.00000000	     31.86741899	      8.15876587	     -0.67764328	     16.07461605	      0.28055498	      2.36470361	      0.00000000	      0.00000000	     -1.35558620	     -6.80790079	      8.68169813	      2.64391880	    -16.35260889	     22.65577352	    101.72386871	     63.36041675	      0.00000000	      0.00000000	    -35.16519095	    -20.12096749	      9.41703145	     88.18518058	     58.95823889	      0.00000000	      0.00000000
      0.02000000	     -8.88361468	      5.83672166	      3.21401944	     -0.22658190	      1.02503949	      0.57142800	     -8.45182185	     -1.04565052	      2.52571489	     39.60252701	      0.69119449	    -13.41934364	      0.00000000	      0.00000000	     31.22088635	      8.13820555	     -0.47611547	     14.72897739	      0.25706915	      2.08289108	      0.00000000	      0.00000000	     -1.50586885	     -6.60542856	      8.64326541	      2.42694550	    -16.53664830	     22.78712077	    101.29259584	     63.32591206	      0.00000000	      0.00000000	    -34.91935840	    -19.84764455	      9.34070106	     88.02802540	     58.92437919	      0.00000000	      0.00000000
      0.02500000	     -8.82886485	      5.65676765	      3.38706511	     -0.21176990	      1.02423589	      0.57127654	     -7.95736824	     -0.69458644	      2.72318230	     41.59460527	      0.72596281	    -13.02488130	      0.00000000	      0.00000000	     30.78011780	      8.12817404	     -0.16925819	     13.79183567	      0.24071294	      2.02454478	      0.00000000	      0.00000000	     -1.56704536	     -6.51156776	      8.58826135	      2.05765765	    -16.57012323	     22.85033704	    100.84685260	     63.28124853	      0.00000000	      0.00000000	    -34.67599597	    -19.76883825	      9.25547400	     88.13339500	     58.92968779	      0.00000000	      0.00000000
      0.03000000	     -8.42779230	      5.66466760	      3.44914312	     -0.19677762	      1.02386286	      0.57091638	     -7.70108844	     -0.65874797	      2.66174834	     44.00832806	      0.76809022	    -12.14061814	      0.00000000	      0.00000000	     29.92836116	      8.28045364	      0.09758199	     13.01651393	      0.22718103	      2.32107587	      0.00000000	      0.00000000	     -2.04324276	     -6.55148870	      8.46326001	      1.83683552	    -16.61132424	     22.95059701	    100.28798053	     63.22379506	      0.00000000	      0.00000000	    -34.24343460	    -19.65262691	      9.10389805	     88.02615837	     58.88099981	      0.00000000	      0.00000000
      0.03500000	     -8.04524067	      5.57239385	      3.56756989	     -0.18223041	      1.02311915	      0.57062992	     -7.28027479	     -0.48838694	      2.67369700	     46.26506384	      0.80747769	    -12.36745248	      0.00000000	      0.00000000	     29.33227950	      8.31649795	      0.34578521	     12.76787721	      0.22284150	      2.31199533	      0.00000000	      0.00000000	     -2.62123324	     -6.50792021	      8.34773174	      1.65324650	    -16.61087133	     22.99073802	     99.89099698	     63.17722718	      0.00000000	      0.00000000	    -33.94847322	    -19.62737931	      9.02425730	     88.02473438	     58.86344719	      0.00000000	      0.00000000
      0.04000000	     -7.79740337	      5.56031322	      3.67641418	     -0.16744165	      1.02198555	      0.57060340	     -6.60585314	     -0.56267598	      2.21087863	     48.88550463	      0.85321301	    -11.99401693	      0.00000000	      0.00000000	     28.89593045	      8.40832751	      0.58554079	     12.74292699	      0.22240603	      2.32615887	      0.00000000	      0.00000000	     -2.92308455	     -6.63439710	      8.11427904	      1.41528816	    -16.54280804	     23.05713318	     98.86045570	     63.04848153	      0.00000000	      0.00000000	    -33.43562569	    -19.44840702	      8.93872894	     87.84757421	     58.81944984	      0.00000000	      0.00000000
      0.04500000	     -7.27213486	      5.49416571	      3.81198568	     -0.15284561	      1.02132458	      0.56997325	     -6.24497506	     -0.55470903	      1.94199636	     51.24890065	      0.89446205	    -12.29793845	      0.00000000	      0.00000000	     28.17235521	      8.50787128	      0.83362204	     12.86519477	      0.22454001	      2.40179687	      0.00000000	      0.00000000	     -3.67987196	     -6.53640084	      7.78145140	      1.17567923	    -16.52778982	     23.15526608	     98.30117231	     62.98651052	      0.00000000	      0.00000000	    -33.01620943	    -19.13342655	      8.96319899	     87.73728582	     58.80846659	      0.00000000	      0.00000000
